<svg xmlns="http://www.w3.org/2000/svg" enable-background="new 0 0 736.75 253.24" viewBox="0 0 736.75 253.24"><rect width="736.75" height="253.24" fill="none"/><path fill="#f50514" d="M221.26,126.76c0-20.34,12.74-35.45,32.79-35.45c20.06,0,32.7,15.11,32.7,35.45c0,20.34-12.64,35.36-32.7,35.36
	C234,162.12,221.26,147.1,221.26,126.76z M272.69,126.76c0-13.59-6.08-24.14-18.54-24.14c-12.45,0-18.82,10.55-18.82,24.14
	c0,13.5,6.37,24.05,18.82,24.05C266.6,150.81,272.69,140.26,272.69,126.76z M298.54,160.6h13.59v-35.07
	c0-4.75-0.38-11.88-0.38-11.88h0.19c0,0,2.66,5.8,4.85,9.41l23.19,37.54h13.31V92.64H339.7v35.64c0,4.75,0.38,11.79,0.38,11.79
	h-0.19c0,0-2.57-5.8-4.75-9.5l-22.62-37.93h-13.97V160.6z M368.97,160.6h50.28v-11.5h-36.5v-18.35h31.75v-11.31h-31.75v-15.21h36.21
	v-11.6h-50V160.6z M432.55,92.64h29.85c7.89,0,13.78,2.28,17.77,6.37c3.8,3.9,6.08,9.22,6.08,15.49c0,12.83-8.46,21.48-22.72,21.48
	h-16.73v24.62h-14.26V92.64z M446.81,124.76h14.26c7.23,0,11.03-3.99,11.03-10.17c0-6.37-3.99-9.98-10.83-9.98h-14.45V124.76z
	 M496.43,160.6h45.72v-11.5h-31.94V92.64h-13.78V160.6z M549.46,138.74c0,14.73,9.22,23,26.81,23c17.39,0,26.33-8.46,26.33-23v-46.1
	h-13.78v45.91c0,7.03-4.09,12.17-12.83,12.17c-9.22,0-12.74-4.94-12.74-11.98v-46.1h-13.78V138.74z M612.29,139.59
	c0.47,14.35,10.93,22.53,29.37,22.53c15.3,0,26.42-7.7,26.42-21.48c0-14.64-11.4-17.97-25.38-21.01
	c-10.08-2.19-14.83-3.8-14.83-9.32c0-4.85,4.85-7.98,12.26-7.98c7.03,0,12.36,3.42,13.12,10.27h13.21
	c-1.05-13.69-10.93-21.2-26.24-21.2c-15.11,0-26.04,6.94-26.04,20.34c0,14.16,11.12,17.39,23.29,20.15
	c10.36,2.38,16.82,3.71,16.82,10.36c0,6.27-6.18,8.75-13.21,8.75c-9.69,0-14.35-3.23-15.3-11.41H612.29z M68.67,68.67v115.89h115.89
	v-66.17h-12.88v53.29H81.55V81.55h53.3V68.67H68.67z M171.68,47.21v21.46h-21.46v12.88h21.46v21.46h12.88V81.55h21.46V68.67h-21.46
	V47.21H171.68z M134.84,154.52V98H123.4c0,3.89-1.31,6.82-3.3,8.56c-2.07,1.74-5.22,2.53-8.86,2.53h-1.43v9.3h12.16v36.13H134.84z"/></svg>